<svg xmlns="http://www.w3.org/2000/svg" version="1.1" width="3250px" height="2299px"
    style="shape-rendering:geometricPrecision; text-rendering:geometricPrecision; image-rendering:optimizeQuality; fill-rule:evenodd; clip-rule:evenodd"
    xmlns:xlink="http://www.w3.org/1999/xlink">
    <path style="opacity:0.999" fill="#7e7e7e"
        d="M 1030.5,-0.5 C 1202.17,-0.5 1373.83,-0.5 1545.5,-0.5C 1545.67,521.5 1545.5,1043.5 1545,1565.5C 1533.02,1758.27 1461.02,1924.27 1329,2063.5C 1186.79,2207.02 1014.29,2285.36 811.5,2298.5C 785.833,2298.5 760.167,2298.5 734.5,2298.5C 507.566,2283.12 321.066,2189.12 175,2016.5C 40.228,1847.52 -16.4387,1654.85 5,1438.5C 17.0665,1333.47 49.2332,1235.14 101.5,1143.5C 251.329,1228.25 400.996,1313.25 550.5,1398.5C 551.614,1399.72 551.781,1401.06 551,1402.5C 507.716,1485.14 507.716,1567.8 551,1650.5C 604.994,1738.93 684.161,1782.1 788.5,1780C 863.852,1773.75 925.352,1741.58 973,1683.5C 1008.75,1637.08 1026.92,1584.41 1027.5,1525.5C 1028.5,1525.5 1029.5,1525.5 1030.5,1525.5C 1030.5,1016.83 1030.5,508.167 1030.5,-0.5 Z" />
    <path style="opacity:0.999" fill="#7e7e7e"
        d="M 2437.5,-0.5 C 2463.17,-0.5 2488.83,-0.5 2514.5,-0.5C 2741.37,14.8482 2927.87,108.848 3074,281.5C 3187.59,422.726 3246.09,584.392 3249.5,766.5C 3249.5,768.167 3249.5,769.833 3249.5,771.5C 3248.17,771.833 3248.17,772.167 3249.5,772.5C 3249.5,773.833 3249.5,775.167 3249.5,776.5C 3247.92,911.238 3213.92,1037.24 3147.5,1154.5C 2997.67,1069.75 2848,984.753 2698.5,899.5C 2697.39,898.277 2697.22,896.944 2698,895.5C 2737.16,821.964 2740.83,746.63 2709,669.5C 2664.85,578.648 2592.35,528.148 2491.5,518C 2398.15,515.432 2323.65,551.265 2268,625.5C 2237.77,669.705 2222.27,718.705 2221.5,772.5C 2220.5,772.5 2219.5,772.5 2218.5,772.5C 2218.5,1281.17 2218.5,1789.83 2218.5,2298.5C 2046.83,2298.5 1875.17,2298.5 1703.5,2298.5C 1703.33,1776.83 1703.5,1255.17 1704,733.5C 1717.7,521.296 1801.87,343.129 1956.5,199C 2093.42,77.4869 2253.76,10.9869 2437.5,-0.5 Z" />
</svg>